# xmcd
#
# Track frame offsets:
#	150
#	12125
#	25325
#	37787
#	45500
#	59487
#	69875
#	81425
#	93350
#	106400
#	119375
#	127525
#	140575
#	155412
#	173600
#	186600
#	198625
#	210550
#	226050
#	236200
#	248687
#	260962
#
# Disc length: 3612
#
# Revision: 3
# Processed by: cddbd v1.5.1PL0 Copyright (c) Steve Scherf et al.
# Submitted via: audiograbber 1.82.02
# Normalized: r2:DSETVAR1
#
DISCID=2b0e1a16
DTITLE=Various Artist - Country Gold - 90 Great Hits - Vol 4
DYEAR=1991
DGENRE=Country
TTITLE0=Johnny Tillotson - Talk Back Trembling Lips
TTITLE1=Lynn Anderson - Rose Garden
TTITLE2=Faron Young - It's Four In The Morning
TTITLE3=Roger Miller - Do Waka Do
TTITLE4=Billie Jo Spears - Mr Walker, It's All Over
TTITLE5=Conway Twitty - It's Only Make Believe
TTITLE6=Donna fargo - The Happiest Girl In The Whole USA
TTITLE7=Johnny Tilotson - Heartaches By The Number
TTITLE8=Porter Wagoner - Carroll County Accident
TTITLE9=Kenny Rogers - Ruby, Don't Take Your Love To Town
TTITLE10=Freddy Fender - Wasted Days and Wasted Nights
TTITLE11=Johnny Tillotson - It Keeps Right On A-hurtin'
TTITLE12=Jeannie C Riley - Harper Valley PTA
TTITLE13=Rick Nelson - Garden Party
TTITLE14=Johnny Cash - Folsom Prison Blues
TTITLE15=Donna Fargo - Funny Face
TTITLE16=Conway Twitty - Linda On My Mind
TTITLE17=Melba Montgomery - No Charge
TTITLE18=Hank Locklin - Please Help Me I'm Falling
TTITLE19=Dean Martin - Everybody Loves Somebody
TTITLE20=Kenny Rogers - Reuben James
TTITLE21=Jim Reeves - He'll Have To Go
EXTD=
EXTT0=
EXTT1=
EXTT2=
EXTT3=
EXTT4=
EXTT5=
EXTT6=
EXTT7=
EXTT8=
EXTT9=
EXTT10=
EXTT11=
EXTT12=
EXTT13=
EXTT14=
EXTT15=
EXTT16=
EXTT17=
EXTT18=
EXTT19=
EXTT20=
EXTT21=
PLAYORDER=
